<svg xmlns="http://www.w3.org/2000/svg" xmlns:xlink="http://www.w3.org/1999/xlink" width="73.657" height="66.447" viewBox="0 0 73.657 66.447">
  <defs>
    <clipPath id="clip-path">
      <path id="Clip_7" data-name="Clip 7" d="M0,0H73.657V33.862H0Z" fill="none"/>
    </clipPath>
  </defs>
  <g id="Group_1" data-name="Group 1" transform="translate(-197 -171)">
    <path id="Fill_2" data-name="Fill 2" d="M15,5.079a1.052,1.052,0,0,1-.957-.635A7.356,7.356,0,0,0,7.348,0,7.239,7.239,0,0,0,2.154,2.215,7.639,7.639,0,0,0,0,7.558a7.641,7.641,0,0,0,1.775,4.919,7.55,7.55,0,0,0,.826.843l.061.057L15.019,26,27.838,12.906l.006-.011a7.694,7.694,0,0,0,0-10.681A7.231,7.231,0,0,0,22.652,0a7.356,7.356,0,0,0-6.7,4.444A1.048,1.048,0,0,1,15,5.079Z" transform="translate(215 171)" fill="#f49e73"/>
    <g id="Group_8" data-name="Group 8" transform="translate(197 203.585)">
      <path id="Clip_7-2" data-name="Clip 7" d="M0,0H73.657V33.862H0Z" fill="none"/>
      <g id="Group_8-2" data-name="Group 8" clip-path="url(#clip-path)">
        <path id="Fill_6" data-name="Fill 6" d="M73.636,9.849l.023-.064c-5.322,0-8.578-3.279-12.494-6.044A17.491,17.491,0,0,0,50.546,0c-2.062,0-3.811.019-5.3.062H34.426a2.881,2.881,0,0,0-2.863,2.9,2.88,2.88,0,0,0,2.863,2.9H44.587a4.359,4.359,0,0,1,1.381,8.1l-3.953,1.058c-1.336.326-2.6.671-3.8,1.018l-.255.069C33.5,17.3,28.7,18.573,27.826,18.781a5.4,5.4,0,0,1-1.568-.112l-16-10.489-2.9-2.118v0a4.062,4.062,0,0,0-.434-.249,4.388,4.388,0,0,0-.666-.281,4.673,4.673,0,0,0-.567-.125,4.447,4.447,0,0,0-.625-.052,4.1,4.1,0,0,0-.837.085,4.643,4.643,0,0,0-2.851,7.922l0,0,.023.017a4.79,4.79,0,0,0,1.135.833l1.1.808L28.714,33.418l0,0,.308.121a5.417,5.417,0,0,0,1.79.328,5.537,5.537,0,0,0,1.077-.11l.125-.033c8.5-2.184,26.058-6.7,34.278-8.749.2-.075.393-.143.592-.218a32.962,32.962,0,0,1,6.748-1.168V22.37l.023,0-.023-1.663V9.849Z" transform="translate(-0.001)" fill="#5a6e7e"/>
      </g>
    </g>
  </g>
</svg>
